<svg id="Layer_1" data-name="Layer 1" xmlns="http://www.w3.org/2000/svg" viewBox="0 0 294.74 85.21"><defs><style>.cls-1{fill:#29abe2;}.cls-2{fill:#ef416c;}.cls-3{fill:#b2d237;}.cls-4{fill:#231f20;}</style></defs><title>ick-logo-new</title><rect class="cls-1" y="0.71" width="27.32" height="83.77"/><polygon class="cls-2" points="143.31 85.21 97.11 42.6 143.31 0 143.31 85.21"/><path class="cls-3" d="M235,387.09a42.6,42.6,0,1,0,0,85.21V387.09Z" transform="translate(-150.27 -387.09)"/><rect class="cls-4" x="168.22" y="10.33" width="3.3" height="15.02"/><polygon class="cls-4" points="177.71 10.33 183.98 20.41 184.02 20.41 184.02 10.33 187.11 10.33 187.11 25.35 183.81 25.35 177.56 15.29 177.52 15.29 177.52 25.35 174.42 25.35 174.42 10.33 177.71 10.33"/><polygon class="cls-4" points="193.3 10.33 199.57 20.41 199.61 20.41 199.61 10.33 202.7 10.33 202.7 25.35 199.4 25.35 193.15 15.29 193.11 15.29 193.11 25.35 190.01 25.35 190.01 10.33 193.3 10.33"/><path class="cls-4" d="M355.73,401.87a7.52,7.52,0,0,1,1.45-2.52,6.65,6.65,0,0,1,2.33-1.68,8.23,8.23,0,0,1,6.22,0,6.68,6.68,0,0,1,2.31,1.68,7.55,7.55,0,0,1,1.45,2.52A9.41,9.41,0,0,1,370,405a9.09,9.09,0,0,1-.5,3.06,7.35,7.35,0,0,1-1.45,2.47,6.66,6.66,0,0,1-2.31,1.65,8.35,8.35,0,0,1-6.22,0,6.63,6.63,0,0,1-2.33-1.65,7.31,7.31,0,0,1-1.45-2.47,9,9,0,0,1-.5-3.06,9.36,9.36,0,0,1,.5-3.12m3,5a5,5,0,0,0,.71,1.61,3.63,3.63,0,0,0,1.26,1.15,4.38,4.38,0,0,0,3.79,0,3.62,3.62,0,0,0,1.26-1.15,5,5,0,0,0,.71-1.61,7.69,7.69,0,0,0,.22-1.84,8.27,8.27,0,0,0-.22-1.91,5.11,5.11,0,0,0-.71-1.65,3.57,3.57,0,0,0-1.26-1.16,4.37,4.37,0,0,0-3.79,0,3.58,3.58,0,0,0-1.26,1.16,5.07,5.07,0,0,0-.71,1.65,8.17,8.17,0,0,0-.22,1.91,7.59,7.59,0,0,0,.22,1.84" transform="translate(-150.27 -387.09)"/><polygon class="cls-4" points="225.24 25.35 220.38 10.33 223.77 10.33 227.11 20.89 227.16 20.89 230.54 10.33 233.95 10.33 228.96 25.35 225.24 25.35"/><path class="cls-4" d="M391.39,397.42l5.62,15h-3.43l-1.14-3.35h-5.62l-1.18,3.35h-3.32l5.68-15h3.39Zm0.19,9.22-1.89-5.51h0l-2,5.51h3.89Z" transform="translate(-150.27 -387.09)"/><polygon class="cls-4" points="244.93 13.11 244.93 10.33 257.24 10.33 257.24 13.11 252.74 13.11 252.74 25.35 249.44 25.35 249.44 13.11 244.93 13.11"/><rect class="cls-4" x="259.66" y="10.33" width="3.3" height="15.02"/><path class="cls-4" d="M416,401.87a7.52,7.52,0,0,1,1.45-2.52,6.65,6.65,0,0,1,2.33-1.68,8.23,8.23,0,0,1,6.22,0,6.68,6.68,0,0,1,2.31,1.68,7.55,7.55,0,0,1,1.45,2.52,9.41,9.41,0,0,1,.5,3.12,9.09,9.09,0,0,1-.5,3.06,7.35,7.35,0,0,1-1.45,2.47,6.66,6.66,0,0,1-2.31,1.65,8.35,8.35,0,0,1-6.22,0,6.63,6.63,0,0,1-2.33-1.65,7.31,7.31,0,0,1-1.45-2.47,9,9,0,0,1-.51-3.06,9.36,9.36,0,0,1,.51-3.12m3,5a4.92,4.92,0,0,0,.71,1.61A3.63,3.63,0,0,0,421,409.6a4.38,4.38,0,0,0,3.79,0,3.61,3.61,0,0,0,1.26-1.15,4.92,4.92,0,0,0,.71-1.61A7.6,7.6,0,0,0,427,405a8.17,8.17,0,0,0-.22-1.91,5,5,0,0,0-.71-1.65,3.57,3.57,0,0,0-1.26-1.16,4.37,4.37,0,0,0-3.79,0,3.58,3.58,0,0,0-1.26,1.16,5,5,0,0,0-.71,1.65,8.16,8.16,0,0,0-.22,1.91,7.59,7.59,0,0,0,.22,1.84" transform="translate(-150.27 -387.09)"/><polygon class="cls-4" points="285.33 10.33 291.61 20.41 291.65 20.41 291.65 10.33 294.74 10.33 294.74 25.35 291.44 25.35 285.19 15.29 285.14 15.29 285.14 25.35 282.05 25.35 282.05 10.33 285.33 10.33"/><path class="cls-4" d="M328.13,425.83a3.33,3.33,0,0,0-.74-0.83,3.37,3.37,0,0,0-1-.56,3.43,3.43,0,0,0-1.17-.2,3.86,3.86,0,0,0-1.89.43,3.58,3.58,0,0,0-1.26,1.16,5,5,0,0,0-.71,1.65,8.15,8.15,0,0,0-.22,1.92,7.58,7.58,0,0,0,.22,1.84,5,5,0,0,0,.71,1.61,3.61,3.61,0,0,0,1.26,1.15,3.86,3.86,0,0,0,1.89.43,3.05,3.05,0,0,0,2.37-.93,4.29,4.29,0,0,0,1-2.44h3.2a7.62,7.62,0,0,1-.65,2.55,6.11,6.11,0,0,1-1.39,1.94,5.88,5.88,0,0,1-2,1.22,7.39,7.39,0,0,1-2.54.42,7.74,7.74,0,0,1-3.11-.6,6.65,6.65,0,0,1-2.32-1.65,7.3,7.3,0,0,1-1.45-2.47,9.09,9.09,0,0,1-.5-3.06,9.41,9.41,0,0,1,.5-3.12,7.48,7.48,0,0,1,1.45-2.51,6.62,6.62,0,0,1,2.32-1.68,8,8,0,0,1,5.45-.25,6.41,6.41,0,0,1,2,1,5.61,5.61,0,0,1,1.44,1.69,6,6,0,0,1,.71,2.31h-3.2a2.69,2.69,0,0,0-.38-1" transform="translate(-150.27 -387.09)"/><polygon class="cls-4" points="195.04 34.73 195.04 37.5 187.11 37.5 187.11 40.72 194.39 40.72 194.39 43.29 187.11 43.29 187.11 46.97 195.21 46.97 195.21 49.75 183.81 49.75 183.81 34.73 195.04 34.73"/><polygon class="cls-4" points="201.17 34.73 207.44 44.81 207.48 44.81 207.48 34.73 210.57 34.73 210.57 49.75 207.27 49.75 201.02 39.69 200.98 39.69 200.98 49.75 197.89 49.75 197.89 34.73 201.17 34.73"/><polygon class="cls-4" points="213.38 37.5 213.38 34.73 225.69 34.73 225.69 37.5 221.19 37.5 221.19 49.75 217.88 49.75 217.88 37.5 213.38 37.5"/><path class="cls-4" d="M387,421.82a4.83,4.83,0,0,1,1.82.33,4.2,4.2,0,0,1,1.39.89,3.9,3.9,0,0,1,.88,1.32,4.22,4.22,0,0,1,.3,1.61,4.52,4.52,0,0,1-.56,2.29,3.52,3.52,0,0,1-1.82,1.47v0a2.59,2.59,0,0,1,1,.52,2.89,2.89,0,0,1,.65.82,3.8,3.8,0,0,1,.37,1,8.74,8.74,0,0,1,.16,1.14c0,0.24,0,.52,0,0.84s0,0.65.07,1a6.74,6.74,0,0,0,.17,1,2.21,2.21,0,0,0,.35.77h-3.3a5.8,5.8,0,0,1-.34-1.7q-0.06-1-.19-1.89a3,3,0,0,0-.72-1.73,2.46,2.46,0,0,0-1.79-.55h-3.3v5.87h-3.3v-15H387Zm-1.18,6.8a2.5,2.5,0,0,0,1.71-.5,2.1,2.1,0,0,0,.57-1.64,2,2,0,0,0-.57-1.59,2.53,2.53,0,0,0-1.71-.49h-3.62v4.23h3.62Z" transform="translate(-150.27 -387.09)"/><polygon class="cls-4" points="255.24 34.73 255.24 37.5 247.3 37.5 247.3 40.72 254.58 40.72 254.58 43.29 247.3 43.29 247.3 46.97 255.41 46.97 255.41 49.75 244 49.75 244 34.73 255.24 34.73"/><polygon class="cls-4" points="171.52 59.88 171.52 66.11 177.39 59.88 181.51 59.88 175.64 65.81 182.08 74.9 177.94 74.9 173.41 68.15 171.52 70.06 171.52 74.9 168.22 74.9 168.22 59.88 171.52 59.88"/><path class="cls-4" d="M332.77,451.42a7.5,7.5,0,0,1,1.45-2.52,6.65,6.65,0,0,1,2.33-1.68,8.23,8.23,0,0,1,6.22,0,6.7,6.7,0,0,1,2.31,1.68,7.5,7.5,0,0,1,1.45,2.52,9.36,9.36,0,0,1,.51,3.13,9,9,0,0,1-.51,3.06,7.3,7.3,0,0,1-1.45,2.47,6.7,6.7,0,0,1-2.31,1.65,8.36,8.36,0,0,1-6.22,0,6.65,6.65,0,0,1-2.33-1.65,7.3,7.3,0,0,1-1.45-2.47,9.09,9.09,0,0,1-.5-3.06,9.41,9.41,0,0,1,.5-3.12m3,5a4.93,4.93,0,0,0,.7,1.61,3.59,3.59,0,0,0,1.26,1.15,4.37,4.37,0,0,0,3.79,0,3.59,3.59,0,0,0,1.26-1.15,4.93,4.93,0,0,0,.7-1.61,7.58,7.58,0,0,0,.22-1.84,8.16,8.16,0,0,0-.22-1.92,5,5,0,0,0-.7-1.65,3.56,3.56,0,0,0-1.26-1.16,4.37,4.37,0,0,0-3.79,0,3.57,3.57,0,0,0-1.26,1.16,5,5,0,0,0-.7,1.65,8.17,8.17,0,0,0-.22,1.92,7.58,7.58,0,0,0,.22,1.84" transform="translate(-150.27 -387.09)"/><path class="cls-4" d="M352.57,458.29a2.36,2.36,0,0,0,.73.85,3.1,3.1,0,0,0,1.06.48,5,5,0,0,0,1.26.16,6.37,6.37,0,0,0,.95-0.07,3.28,3.28,0,0,0,.95-0.28,2.06,2.06,0,0,0,.73-0.58,1.45,1.45,0,0,0,.29-0.94,1.32,1.32,0,0,0-.39-1,3.07,3.07,0,0,0-1-.63,10.37,10.37,0,0,0-1.43-.44q-0.8-.19-1.62-0.42a14.45,14.45,0,0,1-1.64-.52,5.56,5.56,0,0,1-1.43-.79,3.72,3.72,0,0,1-1-1.21,3.67,3.67,0,0,1-.39-1.76,3.93,3.93,0,0,1,.49-2,4.48,4.48,0,0,1,1.29-1.42,5.62,5.62,0,0,1,1.81-.84,7.74,7.74,0,0,1,2-.27,9.52,9.52,0,0,1,2.26.26,5.65,5.65,0,0,1,1.93.85,4.32,4.32,0,0,1,1.34,1.5,4.61,4.61,0,0,1,.49,2.22H358a2.66,2.66,0,0,0-.28-1.12,1.87,1.87,0,0,0-.64-0.7,2.77,2.77,0,0,0-.92-0.36,5.76,5.76,0,0,0-1.12-.11,4,4,0,0,0-.8.08,2.14,2.14,0,0,0-.72.29,1.84,1.84,0,0,0-.54.53,1.41,1.41,0,0,0-.21.8,1.34,1.34,0,0,0,.17.71,1.48,1.48,0,0,0,.66.51,8.48,8.48,0,0,0,1.37.46l2.28,0.59q0.42,0.08,1.17.31a5.55,5.55,0,0,1,1.48.71,4.49,4.49,0,0,1,1.27,1.29,3.67,3.67,0,0,1,.54,2.07,4.58,4.58,0,0,1-.4,1.92,4.16,4.16,0,0,1-1.19,1.53,5.74,5.74,0,0,1-2,1,9.26,9.26,0,0,1-2.71.36,9.44,9.44,0,0,1-2.41-.31,6,6,0,0,1-2.06-1,4.71,4.71,0,0,1-1.42-1.66,5,5,0,0,1-.51-2.4h3.2a2.74,2.74,0,0,0,.27,1.28" transform="translate(-150.27 -387.09)"/><path class="cls-4" d="M364.32,451.42a7.47,7.47,0,0,1,1.45-2.52,6.65,6.65,0,0,1,2.32-1.68,8.23,8.23,0,0,1,6.22,0,6.71,6.71,0,0,1,2.32,1.68,7.53,7.53,0,0,1,1.45,2.52,9.4,9.4,0,0,1,.51,3.13,9.09,9.09,0,0,1-.51,3.06,7.33,7.33,0,0,1-1.45,2.47,6.7,6.7,0,0,1-2.32,1.65,8.36,8.36,0,0,1-6.22,0,6.64,6.64,0,0,1-2.32-1.65,7.27,7.27,0,0,1-1.45-2.47,9.09,9.09,0,0,1-.51-3.06,9.4,9.4,0,0,1,.51-3.12m3,5A4.93,4.93,0,0,0,368,458a3.58,3.58,0,0,0,1.26,1.15,4.37,4.37,0,0,0,3.79,0,3.6,3.6,0,0,0,1.26-1.15,5,5,0,0,0,.71-1.61,7.68,7.68,0,0,0,.22-1.84,8.27,8.27,0,0,0-.22-1.92,5.08,5.08,0,0,0-.71-1.65,3.58,3.58,0,0,0-1.26-1.16,4.37,4.37,0,0,0-3.79,0A3.56,3.56,0,0,0,368,451a5,5,0,0,0-.71,1.65,8.17,8.17,0,0,0-.22,1.92,7.58,7.58,0,0,0,.22,1.84" transform="translate(-150.27 -387.09)"/><polygon class="cls-4" points="233.83 74.9 228.97 59.88 232.35 59.88 235.7 70.44 235.74 70.44 239.13 59.88 242.54 59.88 237.55 74.9 233.83 74.9"/><path class="cls-4" d="M393.95,451.42a7.5,7.5,0,0,1,1.45-2.52,6.65,6.65,0,0,1,2.33-1.68,8.23,8.23,0,0,1,6.22,0,6.68,6.68,0,0,1,2.31,1.68,7.53,7.53,0,0,1,1.45,2.52,9.4,9.4,0,0,1,.5,3.13,9.09,9.09,0,0,1-.5,3.06,7.34,7.34,0,0,1-1.45,2.47,6.68,6.68,0,0,1-2.31,1.65,8.36,8.36,0,0,1-6.22,0,6.65,6.65,0,0,1-2.33-1.65,7.3,7.3,0,0,1-1.45-2.47,9,9,0,0,1-.51-3.06,9.35,9.35,0,0,1,.51-3.12m3,5a4.93,4.93,0,0,0,.7,1.61,3.59,3.59,0,0,0,1.26,1.15,4.37,4.37,0,0,0,3.79,0A3.57,3.57,0,0,0,404,458a5,5,0,0,0,.71-1.61,7.68,7.68,0,0,0,.22-1.84,8.27,8.27,0,0,0-.22-1.92A5.08,5.08,0,0,0,404,451a3.55,3.55,0,0,0-1.26-1.16,4.37,4.37,0,0,0-3.79,0,3.56,3.56,0,0,0-1.26,1.16,5,5,0,0,0-.7,1.65,8.17,8.17,0,0,0-.22,1.92,7.58,7.58,0,0,0,.22,1.84" transform="translate(-150.27 -387.09)"/></svg>