<svg width="521" height="895" viewBox="0 0 521 895" fill="none" xmlns="http://www.w3.org/2000/svg">
<g filter="url(#filter0_d_129_14)">
<ellipse cx="260.5" cy="866.5" rx="248.5" ry="16.5" fill="#C4C4C4" fill-opacity="0.01"/>
</g>
<g filter="url(#filter1_d_129_14)">
<path d="M107.583 860H401.417C410.123 860 418.426 859.689 426 859.127C426 859.127 324.094 849.911 254.997 850.001C185.9 850.09 83 859.127 83 859.127C90.5741 859.689 98.8766 860 107.583 860Z" fill="#C4C4C4" fill-opacity="0.01"/>
</g>
<mask id="path-3-outside-1_129_14" maskUnits="userSpaceOnUse" x="41.9998" y="0" width="427" height="861" fill="black">
<rect fill="white" x="41.9998" width="427" height="861"/>
<path fill-rule="evenodd" clip-rule="evenodd" d="M107.726 1C71.9787 1 42.9998 29.9789 42.9998 65.7262V795.274C42.9998 831.021 71.9787 860 107.726 860H403.274C439.021 860 468 831.021 468 795.274V65.7262C468 29.9789 439.021 1 403.274 1H107.726ZM68.0426 94.3297C68.0394 206.373 68.0378 318.418 68.0378 430.463H68.0426V550.101C68.0386 631.991 68.0402 713.889 68.0473 795.795C68.0473 798.478 68.0925 801.161 68.5564 803.843C71.7509 822.243 87.0692 835.585 105.751 836.179C108.462 836.271 111.177 836.263 113.891 836.254C114.665 836.252 115.44 836.25 116.215 836.25H402.294C404.909 836.25 407.527 836.25 410.115 835.775C424.886 833.1 435.062 824.807 440.645 810.895C442.719 805.719 443 800.306 443 794.822C442.984 577.054 442.976 359.293 442.976 141.536C442.959 115.109 442.958 88.6802 442.974 62.2486C442.983 59.002 442.524 55.771 441.611 52.6549C436.723 36.0244 422.518 24.8282 405.158 24.4246C394.891 24.1874 378.525 24.2583 365.579 24.3144C361.939 24.3302 358.57 24.3448 355.683 24.351C352.464 24.3582 350.519 26.274 350.286 29.4648C350.223 30.3184 350.202 31.1751 350.18 32.0318C350.164 32.6786 350.148 33.3254 350.114 33.9708C349.648 43.7304 342.606 51.9299 333.014 53.8823C331.035 54.2963 329.047 54.2959 327.054 54.2955L326.861 54.2954C286.909 54.2978 256.958 54.2978 217.007 54.2954C212.259 54.2947 208.495 54.3019 205.097 54.3084C197.659 54.3226 191.978 54.3334 181.587 54.2503C171.62 54.172 163.283 47.2468 161.138 37.5628C160.577 35.0303 160.525 32.4325 160.473 29.8457L160.472 29.7711C160.445 28.3751 160.105 27.1145 159.166 26.0533C157.9 24.6264 156.252 24.3154 154.43 24.3202C142.145 24.3289 119.859 24.332 107.571 24.3297C104.479 24.3328 101.395 24.6615 98.3725 25.3102C81.5365 28.8879 68.5873 44.1391 68.1615 61.337C67.9621 69.4222 67.9917 77.5138 68.0213 85.6043C68.0319 88.513 68.0426 91.4216 68.0426 94.3297Z"/>
</mask>
<path fill-rule="evenodd" clip-rule="evenodd" d="M107.726 1C71.9787 1 42.9998 29.9789 42.9998 65.7262V795.274C42.9998 831.021 71.9787 860 107.726 860H403.274C439.021 860 468 831.021 468 795.274V65.7262C468 29.9789 439.021 1 403.274 1H107.726ZM68.0426 94.3297C68.0394 206.373 68.0378 318.418 68.0378 430.463H68.0426V550.101C68.0386 631.991 68.0402 713.889 68.0473 795.795C68.0473 798.478 68.0925 801.161 68.5564 803.843C71.7509 822.243 87.0692 835.585 105.751 836.179C108.462 836.271 111.177 836.263 113.891 836.254C114.665 836.252 115.44 836.25 116.215 836.25H402.294C404.909 836.25 407.527 836.25 410.115 835.775C424.886 833.1 435.062 824.807 440.645 810.895C442.719 805.719 443 800.306 443 794.822C442.984 577.054 442.976 359.293 442.976 141.536C442.959 115.109 442.958 88.6802 442.974 62.2486C442.983 59.002 442.524 55.771 441.611 52.6549C436.723 36.0244 422.518 24.8282 405.158 24.4246C394.891 24.1874 378.525 24.2583 365.579 24.3144C361.939 24.3302 358.57 24.3448 355.683 24.351C352.464 24.3582 350.519 26.274 350.286 29.4648C350.223 30.3184 350.202 31.1751 350.18 32.0318C350.164 32.6786 350.148 33.3254 350.114 33.9708C349.648 43.7304 342.606 51.9299 333.014 53.8823C331.035 54.2963 329.047 54.2959 327.054 54.2955L326.861 54.2954C286.909 54.2978 256.958 54.2978 217.007 54.2954C212.259 54.2947 208.495 54.3019 205.097 54.3084C197.659 54.3226 191.978 54.3334 181.587 54.2503C171.62 54.172 163.283 47.2468 161.138 37.5628C160.577 35.0303 160.525 32.4325 160.473 29.8457L160.472 29.7711C160.445 28.3751 160.105 27.1145 159.166 26.0533C157.9 24.6264 156.252 24.3154 154.43 24.3202C142.145 24.3289 119.859 24.332 107.571 24.3297C104.479 24.3328 101.395 24.6615 98.3725 25.3102C81.5365 28.8879 68.5873 44.1391 68.1615 61.337C67.9621 69.4222 67.9917 77.5138 68.0213 85.6043C68.0319 88.513 68.0426 91.4216 68.0426 94.3297Z" fill="white"/>
<path d="M68.0378 430.463H67.0378V431.463H68.0378V430.463ZM68.0426 94.3297L69.0426 94.3298V94.3297H68.0426ZM68.0426 430.463H69.0426V429.463H68.0426V430.463ZM68.0426 550.101L69.0426 550.101V550.101H68.0426ZM68.0473 795.795L69.0473 795.795L69.0473 795.795L68.0473 795.795ZM68.5564 803.843L67.571 804.014L67.5711 804.015L68.5564 803.843ZM105.751 836.179L105.785 835.179L105.783 835.179L105.751 836.179ZM113.891 836.254L113.888 835.254L113.888 835.254L113.891 836.254ZM410.115 835.775L409.937 834.791L409.935 834.791L410.115 835.775ZM440.645 810.895L441.573 811.267L441.573 811.267L440.645 810.895ZM443 794.822L444 794.822L444 794.822L443 794.822ZM442.976 141.536L443.976 141.536L443.976 141.535L442.976 141.536ZM442.974 62.2486L441.974 62.2457L441.974 62.248L442.974 62.2486ZM441.611 52.6549L442.57 52.3736L442.57 52.3729L441.611 52.6549ZM405.158 24.4246L405.182 23.4249L405.181 23.4249L405.158 24.4246ZM365.579 24.3144L365.583 25.3144L365.583 25.3144L365.579 24.3144ZM355.683 24.351L355.681 23.351L355.68 23.351L355.683 24.351ZM350.286 29.4648L349.288 29.392L349.288 29.392L350.286 29.4648ZM350.18 32.0318L351.18 32.0568L351.18 32.0567L350.18 32.0318ZM350.114 33.9708L349.116 33.9186L349.115 33.9231L350.114 33.9708ZM333.014 53.8823L332.815 52.9024L332.81 52.9035L333.014 53.8823ZM327.054 54.2955L327.054 53.2955L327.054 53.2955L327.054 54.2955ZM326.861 54.2954L326.861 53.2954L326.861 53.2954L326.861 54.2954ZM217.007 54.2954L217.006 55.2954L217.006 55.2954L217.007 54.2954ZM205.097 54.3084L205.099 55.3084L205.097 54.3084ZM181.587 54.2503L181.595 53.2504L181.595 53.2504L181.587 54.2503ZM161.138 37.5628L160.161 37.779L160.161 37.7792L161.138 37.5628ZM160.473 29.8457L159.473 29.8656L159.473 29.8657L160.473 29.8457ZM160.472 29.7711L159.472 29.7898L159.472 29.791L160.472 29.7711ZM159.166 26.0533L159.914 25.3904L159.914 25.3897L159.166 26.0533ZM154.43 24.3202L154.431 25.3202L154.432 25.3202L154.43 24.3202ZM107.571 24.3297L107.571 23.3297L107.57 23.3297L107.571 24.3297ZM98.3725 25.3102L98.5803 26.2883L98.5823 26.2879L98.3725 25.3102ZM68.1615 61.337L67.1618 61.3122L67.1618 61.3123L68.1615 61.337ZM68.0213 85.6043L69.0213 85.6006L68.0213 85.6043ZM43.9998 65.7262C43.9998 30.5312 72.531 2 107.726 2V0C71.4264 0 41.9998 29.4266 41.9998 65.7262H43.9998ZM43.9998 795.274V65.7262H41.9998V795.274H43.9998ZM107.726 859C72.531 859 43.9998 830.469 43.9998 795.274H41.9998C41.9998 831.573 71.4264 861 107.726 861V859ZM403.274 859H107.726V861H403.274V859ZM467 795.274C467 830.469 438.469 859 403.274 859V861C439.573 861 469 831.573 469 795.274H467ZM467 65.7262V795.274H469V65.7262H467ZM403.274 2C438.469 2 467 30.5312 467 65.7262H469C469 29.4266 439.573 0 403.274 0V2ZM107.726 2H403.274V0H107.726V2ZM69.0378 430.463C69.0378 318.418 69.0394 206.373 69.0426 94.3298L67.0426 94.3297C67.0394 206.373 67.0378 318.418 67.0378 430.463H69.0378ZM68.0426 429.463H68.0378V431.463H68.0426V429.463ZM69.0426 550.101V430.463H67.0426V550.101H69.0426ZM69.0473 795.795C69.0402 713.889 69.0386 631.991 69.0426 550.101L67.0426 550.101C67.0386 631.991 67.0402 713.889 67.0473 795.795L69.0473 795.795ZM69.5418 803.673C69.0939 801.083 69.0473 798.475 69.0473 795.795H67.0473C67.0473 798.481 67.0912 801.239 67.571 804.014L69.5418 803.673ZM105.783 835.179C87.576 834.601 72.6552 821.605 69.5416 803.672L67.5711 804.015C70.8466 822.88 86.5624 836.569 105.719 837.178L105.783 835.179ZM113.888 835.254C111.171 835.263 108.474 835.271 105.785 835.179L105.717 837.178C108.449 837.271 111.183 837.263 113.894 837.254L113.888 835.254ZM116.215 835.25C115.438 835.25 114.662 835.252 113.888 835.254L113.894 837.254C114.669 837.252 115.442 837.25 116.215 837.25V835.25ZM402.294 835.25H116.215V837.25H402.294V835.25ZM409.935 834.791C407.451 835.247 404.924 835.25 402.294 835.25V837.25C404.893 837.25 407.604 837.252 410.296 836.759L409.935 834.791ZM439.717 810.522C434.263 824.114 424.37 832.177 409.937 834.791L410.294 836.759C425.402 834.023 435.862 825.499 441.573 811.267L439.717 810.522ZM442 794.822C442 800.288 441.715 805.536 439.717 810.523L441.573 811.267C443.723 805.902 444 800.324 444 794.822H442ZM441.976 141.536C441.976 359.293 441.984 577.054 442 794.822L444 794.822C443.984 577.054 443.976 359.292 443.976 141.536H441.976ZM441.974 62.248C441.958 88.68 441.959 115.11 441.976 141.537L443.976 141.535C443.959 115.109 443.958 88.6804 443.974 62.2492L441.974 62.248ZM440.651 52.9362C441.538 55.96 441.983 59.0953 441.974 62.2457L443.974 62.2516C443.984 58.9087 443.511 55.5819 442.57 52.3736L440.651 52.9362ZM405.135 25.4244C422.047 25.8176 435.883 36.7123 440.651 52.9369L442.57 52.3729C437.563 35.3366 422.988 23.8389 405.182 23.4249L405.135 25.4244ZM365.583 25.3144C378.535 25.2583 394.885 25.1876 405.135 25.4244L405.181 23.4249C394.897 23.1873 378.514 23.2584 365.574 23.3144L365.583 25.3144ZM355.685 25.351C358.574 25.3448 361.944 25.3302 365.583 25.3144L365.574 23.3144C361.935 23.3302 358.567 23.3448 355.681 23.351L355.685 25.351ZM351.283 29.5377C351.386 28.1287 351.857 27.1062 352.556 26.4364C353.252 25.77 354.278 25.3541 355.685 25.351L355.68 23.351C353.869 23.355 352.313 23.9007 351.173 24.9917C350.037 26.0794 349.418 27.6102 349.288 29.392L351.283 29.5377ZM351.18 32.0567C351.202 31.196 351.223 30.3633 351.283 29.5377L349.288 29.392C349.224 30.2735 349.202 31.1541 349.181 32.0068L351.18 32.0567ZM351.113 34.0231C351.148 33.3617 351.164 32.7013 351.18 32.0568L349.181 32.0068C349.165 32.6558 349.149 33.289 349.116 33.9186L351.113 34.0231ZM333.214 54.8623C343.253 52.8188 350.625 44.2363 351.113 34.0186L349.115 33.9231C348.671 43.2244 341.96 51.041 332.815 52.9024L333.214 54.8623ZM327.054 55.2955C329.03 55.2959 331.122 55.2998 333.219 54.8612L332.81 52.9035C330.948 53.2929 329.063 53.2959 327.054 53.2955L327.054 55.2955ZM326.861 55.2954L327.054 55.2955L327.054 53.2955L326.861 53.2954L326.861 55.2954ZM217.006 55.2954C256.958 55.2978 286.909 55.2978 326.861 55.2954L326.861 53.2954C286.909 53.2978 256.958 53.2978 217.007 53.2954L217.006 55.2954ZM205.099 55.3084C208.497 55.3019 212.26 55.2947 217.006 55.2954L217.007 53.2954C212.258 53.2947 208.493 53.3019 205.095 53.3084L205.099 55.3084ZM181.579 55.2503C191.975 55.3335 197.66 55.3226 205.099 55.3084L205.095 53.3084C197.658 53.3226 191.981 53.3334 181.595 53.2504L181.579 55.2503ZM160.161 37.7792C162.405 47.9069 171.135 55.1682 181.579 55.2503L181.595 53.2504C172.105 53.1758 164.161 46.5866 162.114 37.3465L160.161 37.7792ZM159.473 29.8657C159.525 32.4355 159.575 35.1334 160.161 37.779L162.114 37.3467C161.578 34.9272 161.525 32.4295 161.473 29.8257L159.473 29.8657ZM159.472 29.791L159.473 29.8656L161.473 29.8258L161.471 29.7511L159.472 29.791ZM158.417 26.7161C159.153 27.5476 159.449 28.5519 159.472 29.7898L161.471 29.7523C161.442 28.1983 161.057 26.6814 159.914 25.3904L158.417 26.7161ZM154.432 25.3202C156.15 25.3157 157.437 25.6113 158.418 26.7168L159.914 25.3897C158.363 23.6415 156.353 23.3152 154.427 23.3202L154.432 25.3202ZM107.57 25.3297C119.859 25.332 142.145 25.3289 154.431 25.3202L154.429 23.3202C142.145 23.3289 119.859 23.332 107.571 23.3297L107.57 25.3297ZM98.5823 26.2879C101.537 25.654 104.55 25.3328 107.572 25.3297L107.57 23.3297C104.407 23.3329 101.254 23.669 98.1627 24.3324L98.5823 26.2879ZM69.1612 61.3617C69.5753 44.6377 82.1862 29.7722 98.5803 26.2883L98.1646 24.332C80.8868 28.0037 67.5993 43.6404 67.1618 61.3122L69.1612 61.3617ZM69.0213 85.6006C68.9917 77.5078 68.9622 69.4303 69.1612 61.3617L67.1618 61.3123C66.962 69.414 66.9917 77.5198 67.0213 85.6079L69.0213 85.6006ZM69.0426 94.3297C69.0426 91.4195 69.0319 88.5091 69.0213 85.6006L67.0213 85.6079C67.032 88.517 67.0426 91.4238 67.0426 94.3297H69.0426Z" fill="black" fill-opacity="0.1" mask="url(#path-3-outside-1_129_14)"/>
<path opacity="0.4" fill-rule="evenodd" clip-rule="evenodd" d="M225.852 34.675C225.852 33.0419 227.197 31.7177 228.857 31.7173L265.871 31.708C267.531 31.7076 268.877 33.0311 268.877 34.6642L268.877 35.6573C268.878 37.2904 267.533 38.6146 265.873 38.615L228.858 38.6242C227.199 38.6247 225.853 37.3011 225.853 35.6681L225.852 34.675Z" fill="#C8C8C8"/>
<path opacity="0.546196" fill-rule="evenodd" clip-rule="evenodd" d="M278.883 35.1588C278.883 33.2556 280.45 31.7049 282.384 31.7044V31.7044C284.319 31.704 285.887 33.2539 285.887 35.1571V35.1571C285.888 37.0603 284.32 38.6109 282.386 38.6114V38.6114C280.452 38.6119 278.884 37.062 278.883 35.1588V35.1588Z" fill="#C8C8C8"/>
<defs>
<filter id="filter0_d_129_14" x="0" y="838" width="521" height="57" filterUnits="userSpaceOnUse" color-interpolation-filters="sRGB">
<feFlood flood-opacity="0" result="BackgroundImageFix"/>
<feColorMatrix in="SourceAlpha" type="matrix" values="0 0 0 0 0 0 0 0 0 0 0 0 0 0 0 0 0 0 127 0" result="hardAlpha"/>
<feOffset/>
<feGaussianBlur stdDeviation="6"/>
<feColorMatrix type="matrix" values="0 0 0 0 0 0 0 0 0 0 0 0 0 0 0 0 0 0 0.08 0"/>
<feBlend mode="normal" in2="BackgroundImageFix" result="effect1_dropShadow_129_14"/>
<feBlend mode="normal" in="SourceGraphic" in2="effect1_dropShadow_129_14" result="shape"/>
</filter>
<filter id="filter1_d_129_14" x="74" y="841" width="361" height="28" filterUnits="userSpaceOnUse" color-interpolation-filters="sRGB">
<feFlood flood-opacity="0" result="BackgroundImageFix"/>
<feColorMatrix in="SourceAlpha" type="matrix" values="0 0 0 0 0 0 0 0 0 0 0 0 0 0 0 0 0 0 127 0" result="hardAlpha"/>
<feOffset/>
<feGaussianBlur stdDeviation="4.5"/>
<feColorMatrix type="matrix" values="0 0 0 0 0 0 0 0 0 0 0 0 0 0 0 0 0 0 0.33 0"/>
<feBlend mode="normal" in2="BackgroundImageFix" result="effect1_dropShadow_129_14"/>
<feBlend mode="normal" in="SourceGraphic" in2="effect1_dropShadow_129_14" result="shape"/>
</filter>
</defs>
</svg>
