<?xml version="1.0" encoding="UTF-8"?>
<svg width="372px" height="346px" viewBox="0 0 372 346" version="1.1" xmlns="http://www.w3.org/2000/svg" xmlns:xlink="http://www.w3.org/1999/xlink">
    <title>88B</title>
    <g id="Pitch-deck" stroke="none" stroke-width="1" fill="none" fill-rule="evenodd">
        <g id="88bits" transform="translate(-1094.000000, -547.000000)" fill-rule="nonzero">
            <g id="Group" transform="translate(1092.002479, 544.979355)">
                <g id="Group-3" transform="translate(-0.000000, 0.000000)">
                    <g id="Group" transform="translate(0.000000, 9.839815)">
                        <path d="M281.819347,78.6754108 L268.408448,74.5122098 C264.527901,73.338003 260.720712,75.46092 259.529959,79.4758577 L239.242193,148.935713 C238.125861,152.706395 240.191518,156.644033 244.086934,157.818235 L257.438356,161.981454 C261.393249,163.155638 265.140957,161.048004 266.242415,157.29259 L286.574812,87.7563991 C287.780425,83.771986 285.729632,79.8496086 281.819347,78.6754108" id="path352-path" fill="#1FB3C0" transform="translate(262.929867, 118.248367) rotate(-319.000000) translate(-262.929867, -118.248367) "></path>
                        <path d="M323.196782,30.1888768 L251.860134,30.2076046 C247.987873,30.2086212 244.880286,33.1542253 244.879257,37.0758218 L244.875702,50.6218493 C244.874669,54.5578106 247.980714,57.4874188 251.852975,57.4864025 L323.189623,57.4676747 C327.256998,57.4666069 330.349572,54.5353715 330.350605,50.5994102 L330.35416,37.0533827 C330.355189,33.1317862 327.264157,30.1878093 323.196782,30.1888768" id="path352-path" fill="#1FB3C0" transform="translate(287.614931, 43.837640) rotate(-300.000000) translate(-287.614931, -43.837640) "></path>
                        <path d="M223.233392,87.8677884 L151.896743,87.8865162 C148.024483,87.8875328 144.916825,91.1043151 144.915869,94.7471801 L144.912295,108.365234 C144.911335,112.022329 148.017324,115.16633 151.889584,115.165314 L223.226233,115.146586 C227.293607,115.145519 230.386238,111.99989 230.387198,108.342795 L230.390772,94.724741 C230.391728,91.081876 227.300767,87.8667209 223.233392,87.8677884" id="path352-path" fill="#1FB3C0" transform="translate(187.651533, 101.516551) rotate(-300.000000) translate(-187.651533, -101.516551) "></path>
                        <path d="M316.280638,174.595883 C312.338925,174.596918 309.345871,177.665458 309.34478,181.821283 L309.325917,253.694385 C309.324902,257.56308 312.316346,260.630049 316.258059,260.629015 L329.751951,260.625472 C333.693663,260.624437 336.64356,257.555909 336.644575,253.687213 L336.663438,181.814111 C336.664529,177.658286 333.716242,174.591306 329.77453,174.592341 L316.280638,174.595883 Z" id="path356-path" fill="#1FB3C0" transform="translate(322.994678, 217.610678) rotate(-300.000000) translate(-322.994678, -217.610678) "></path>
                        <path d="M378.4994,124.697405 L306.518786,124.716302 C302.675381,124.717311 299.557516,127.662918 299.556487,131.584515 L299.552932,145.130542 C299.551899,149.066503 302.668222,151.996109 306.511627,151.9951 L378.492241,151.976203 C382.608013,151.975123 385.710742,149.043885 385.711775,145.107923 L385.715331,131.561896 C385.716359,127.640299 382.615172,124.696325 378.4994,124.697405" id="path356-path" fill="#1FB3C0" transform="translate(342.634131, 138.346253) rotate(-300.000000) translate(-342.634131, -138.346253) "></path>
                        <path d="M278.536009,182.376319 L206.555395,182.395215 C202.71199,182.396224 199.594057,185.600451 199.593101,189.245217 L199.589525,202.870378 C199.588565,206.529382 202.704831,209.675022 206.548236,209.674013 L278.52885,209.655116 C282.644622,209.654036 285.747408,206.506763 285.748368,202.84776 L285.751944,189.222598 C285.7529,185.577832 282.651781,182.375238 278.536009,182.376319" id="path356-path" fill="#1FB3C0" transform="translate(242.670734, 196.025166) rotate(-300.000000) translate(-242.670734, -196.025166) "></path>
                        <path d="M127.357462,170.331051 L113.946708,166.167824 C110.066204,164.99361 106.259052,167.116554 105.068306,171.131535 L84.7806639,240.592146 C83.6643381,244.362869 85.7299684,248.300546 89.6253419,249.474755 L102.976618,253.638001 C106.931469,254.812192 110.67914,252.704531 111.780592,248.949077 L132.112865,179.412129 C133.31847,175.427673 131.267704,171.505257 127.357462,170.331051" id="path352-path" fill="#232424" transform="translate(108.468128, 209.904448) rotate(-318.000000) translate(-108.468128, -209.904448) "></path>
                        <path d="M168.735044,119.432955 L97.3983952,119.451683 C93.5261344,119.452699 90.4185477,122.398304 90.4175185,126.3199 L90.4139632,139.865928 C90.4129305,143.801889 93.5189753,146.731497 97.391236,146.730481 L168.727884,146.711753 C172.795259,146.710685 175.887833,143.77945 175.888866,139.843488 L175.892422,126.297461 C175.893451,122.375864 172.802418,119.431888 168.735044,119.432955" id="path352-path" fill="#1FB3C0" transform="translate(133.153192, 133.081718) rotate(-300.000000) translate(-133.153192, -133.081718) "></path>
                        <path d="M68.7716533,177.111867 L-2.56499511,177.130594 C-6.43725586,177.131611 -9.54491372,180.348393 -9.54586976,183.991258 L-9.54944396,197.609312 C-9.55040351,201.266407 -6.444415,204.410409 -2.57215426,204.409392 L68.7644942,204.390665 C72.8318689,204.389597 75.9244993,201.243968 75.9254591,197.586873 L75.9290333,183.968819 C75.9299891,180.325954 72.839028,177.110799 68.7716533,177.111867" id="path352-path" fill="#232424" transform="translate(33.189795, 190.760630) rotate(-300.000000) translate(-33.189795, -190.760630) "></path>
                        <path d="M62.6814491,69.6386738 L48.9876079,69.642269 C45.3282934,69.6432297 42.3828834,72.712296 42.3817926,76.868851 L42.3629264,148.75458 C42.3619111,152.623955 45.3057145,155.676361 48.9650291,155.6754 L62.6588703,155.671805 C66.3181849,155.670844 69.4637096,152.61684 69.4647251,148.747465 L69.4835913,76.8617362 C69.4846819,72.7051812 66.3407637,69.6377134 62.6814491,69.6386738" id="path352-path" fill="#232424" transform="translate(55.923259, 112.657037) rotate(-300.000000) translate(-55.923259, -112.657037) "></path>
                        <path d="M161.818899,263.839962 C157.877187,263.840996 154.884133,266.909536 154.883042,271.065361 L154.864179,342.938463 C154.863164,346.807159 157.854608,349.874127 161.79632,349.873093 L175.290212,349.86955 C179.231925,349.868515 182.181821,346.799987 182.182837,342.931292 L182.2017,271.058189 C182.20279,266.902364 179.254504,263.835384 175.312791,263.836419 L161.818899,263.839962 Z" id="path356-path" fill="#232424" transform="translate(168.532939, 306.854756) rotate(-300.000000) translate(-168.532939, -306.854756) "></path>
                        <path d="M224.037661,213.941484 L152.057047,213.96038 C148.213643,213.961389 145.095778,216.906996 145.094749,220.828593 L145.091193,234.37462 C145.090161,238.310582 148.206484,241.240187 152.049888,241.239178 L224.030502,241.220282 C228.146274,241.219201 231.249004,238.287963 231.250037,234.352002 L231.253592,220.805974 C231.254621,216.884378 228.153433,213.940403 224.037661,213.941484" id="path356-path" fill="#1FB3C0" transform="translate(188.172393, 227.590331) rotate(-300.000000) translate(-188.172393, -227.590331) "></path>
                        <path d="M124.07427,271.620397 L52.0936562,271.639294 C48.2502515,271.640303 45.1323188,274.844529 45.1313623,278.489295 L45.1277862,292.114457 C45.1268262,295.77346 48.2430924,298.9191 52.086497,298.918092 L124.067111,298.899195 C128.182883,298.898114 131.285669,295.750842 131.28663,292.091838 L131.290206,278.466676 C131.291162,274.82191 128.190042,271.619317 124.07427,271.620397" id="path356-path" fill="#232424" transform="translate(88.208996, 285.269244) rotate(-300.000000) translate(-88.208996, -285.269244) "></path>
                    </g>
                    <path d="M217.143188,-9.7655892 L203.449346,-9.76199403 C199.790032,-9.76103337 196.844622,-6.69196702 196.843531,-2.53541203 L196.824665,69.3503173 C196.82365,73.2196921 199.767453,76.2720976 203.426768,76.2711372 L217.120609,76.267542 C220.779923,76.2665814 223.925448,73.2125772 223.926464,69.3432024 L223.94533,-2.54252688 C223.94642,-6.69908187 220.802502,-9.76654963 217.143188,-9.7655892" id="path352-path" fill="#1FB3C0" transform="translate(210.384997, 33.252774) rotate(-300.000000) translate(-210.384997, -33.252774) "></path>
                </g>
            </g>
        </g>
    </g>
</svg>