<svg width="28" height="28" viewBox="0 0 28 28" fill="none" xmlns="http://www.w3.org/2000/svg">
<path d="M19.8333 4H8.16667C5.86583 4 4 5.86583 4 8.16667V19.8333C4 22.1342 5.86583 24 8.16667 24H19.8333C22.135 24 24 22.1342 24 19.8333V8.16667C24 5.86583 22.135 4 19.8333 4ZM10.6667 19.8333H8.16667V10.6667H10.6667V19.8333ZM9.41667 9.61C8.61167 9.61 7.95833 8.95167 7.95833 8.14C7.95833 7.32833 8.61167 6.67 9.41667 6.67C10.2217 6.67 10.875 7.32833 10.875 8.14C10.875 8.95167 10.2225 9.61 9.41667 9.61ZM20.6667 19.8333H18.1667V15.1633C18.1667 12.3567 14.8333 12.5692 14.8333 15.1633V19.8333H12.3333V10.6667H14.8333V12.1375C15.9967 9.9825 20.6667 9.82333 20.6667 14.2008V19.8333Z" fill="currentColor"/>
</svg>
