
<svg width="147px" height="44px" viewBox="0 0 147 44" version="1.1" xmlns="http://www.w3.org/2000/svg" xmlns:xlink="http://www.w3.org/1999/xlink">
    <defs>
        <linearGradient x1="50%" y1="2.98372438e-14%" x2="50%" y2="99.7332661%" id="linearGradient-logo-small">
            <stop stop-color="#6B46C1" offset="0%"></stop>
            <stop stop-color="#44337A" offset="0.0655594406%"></stop>
            <stop stop-color="#A755F6" offset="100%"></stop>
        </linearGradient>
    </defs>
    <g stroke="none" stroke-width="1" fill="none" fill-rule="evenodd">
        <g id="Medium" transform="translate(-32.000000, -32.000000)">
            <g id="Logo" transform="translate(32.000000, 32.000000)" fill-rule="nonzero">
                <path d="M16.5,0 C21.186587,0 24.9858165,3.8085074 24.9858165,8.50653936 C24.9858165,10.8448643 24.0446351,12.9628277 22.5213092,14.5005161 L31.3430413,23.344158 C33.5523196,25.5588315 33.5523196,29.1495267 31.3430413,31.3642002 L20.3949825,42.3389949 C18.1857041,44.5536684 14.6037563,44.5536684 12.3944779,42.3389949 L1.65695874,31.575254 C-0.552319579,29.3605805 -0.552319579,25.7698853 1.65695874,23.5552118 L10.5846698,14.6056426 C8.99913639,13.060092 8.01418351,10.8986206 8.01418351,8.50653936 C8.01418351,3.8085074 11.813413,0 16.5,0 Z" fill="url(#linearGradient-logo-small)"></path>
            </g>
        </g>
    </g>
</svg>