<?xml version="1.0" standalone="no"?>
<!DOCTYPE svg PUBLIC "-//W3C//DTD SVG 20010904//EN"
 "http://www.w3.org/TR/2001/REC-SVG-20010904/DTD/svg10.dtd">
<svg version="1.0" xmlns="http://www.w3.org/2000/svg"
 width="700.000000pt" height="700.000000pt" viewBox="0 0 700.000000 700.000000"
 preserveAspectRatio="xMidYMid meet">
<metadata>
Created by potrace 1.14, written by Peter Selinger 2001-2017
</metadata>
<g transform="translate(0.000000,700.000000) scale(0.100000,-0.100000)"
fill="#000000" stroke="none">
<path d="M3324 6275 c-230 -42 -421 -142 -584 -305 -93 -93 -144 -164 -202
-281 -36 -71 -92 -219 -83 -219 2 0 -1 -15 -6 -32 -37 -128 -26 -409 21 -532
5 -14 6 -26 3 -26 -4 0 -2 -5 5 -12 7 -7 12 -18 12 -26 0 -17 94 -207 112
-227 7 -7 24 -30 38 -50 14 -19 44 -57 68 -82 l42 -47 -585 -585 c-321 -323
-598 -604 -614 -626 -86 -118 -131 -245 -138 -392 -9 -174 32 -320 130 -457
40 -54 1423 -1446 1504 -1512 62 -51 175 -108 258 -130 84 -22 235 -27 320 -9
74 15 189 59 216 82 8 7 19 13 24 13 22 0 158 132 832 807 752 754 791 797
841 923 65 162 68 352 10 515 -53 148 -66 163 -688 788 -322 323 -586 591
-588 596 -1 4 9 20 23 35 262 283 348 708 219 1085 -120 347 -423 614 -791
697 -91 20 -309 25 -399 9z"/>
</g>
</svg>
