<?xml version="1.0" standalone="no"?>
<!DOCTYPE svg PUBLIC "-//W3C//DTD SVG 20010904//EN"
 "http://www.w3.org/TR/2001/REC-SVG-20010904/DTD/svg10.dtd">
<svg version="1.0" xmlns="http://www.w3.org/2000/svg"
 width="700.000000pt" height="700.000000pt" viewBox="0 0 700.000000 700.000000"
 preserveAspectRatio="xMidYMid meet">
<metadata>
Created by potrace 1.14, written by Peter Selinger 2001-2017
</metadata>
<g transform="translate(0.000000,700.000000) scale(0.100000,-0.100000)"
fill="#000000" stroke="none">
<path d="M3369 6996 c-2 -2 -27 -6 -56 -10 -86 -10 -235 -48 -298 -76 -224
-99 -342 -178 -480 -321 -180 -188 -282 -371 -345 -619 -28 -113 -31 -133 -35
-290 -5 -198 19 -347 86 -520 26 -68 42 -100 103 -211 31 -57 101 -150 160
-214 l55 -60 -724 -725 c-398 -399 -741 -746 -762 -772 -127 -155 -202 -376
-197 -578 2 -84 31 -257 45 -266 5 -3 9 -13 9 -22 0 -39 102 -217 165 -288 5
-7 416 -419 913 -917 634 -636 923 -918 970 -950 167 -111 323 -157 526 -153
199 5 353 57 515 174 73 53 1874 1858 1929 1934 86 117 152 280 169 417 32
264 -52 536 -223 720 -18 20 -348 353 -734 740 -698 701 -701 704 -682 725 10
12 33 37 50 56 131 143 267 430 298 625 3 22 9 59 13 82 11 58 11 265 0 342
-16 114 -22 140 -61 256 -113 345 -362 629 -693 790 -129 63 -218 91 -395 122
-31 5 -316 13 -321 9z"/>
</g>
</svg>
